<?xml version="1.0" encoding="UTF-8" standalone="no"?>
<svg
   xmlns:dc="http://purl.org/dc/elements/1.1/"
   xmlns:cc="http://creativecommons.org/ns#"
   xmlns:rdf="http://www.w3.org/1999/02/22-rdf-syntax-ns#"
   xmlns:svg="http://www.w3.org/2000/svg"
   xmlns="http://www.w3.org/2000/svg"
   xmlns:sodipodi="http://sodipodi.sourceforge.net/DTD/sodipodi-0.dtd"
   xmlns:inkscape="http://www.inkscape.org/namespaces/inkscape"
   width="45.922386mm"
   height="46.027046mm"
   viewBox="0 0 45.922386 46.027046"
   version="1.1"
   id="svg10"
   sodipodi:docname="nimiq-watch-logo_solid_experiments.svg"
   inkscape:version="0.92.3 (2405546, 2018-03-11)">
  <metadata
     id="metadata16">
    <rdf:RDF>
      <cc:Work
         rdf:about="">
        <dc:format>image/svg+xml</dc:format>
        <dc:type
           rdf:resource="http://purl.org/dc/dcmitype/StillImage" />
        <dc:title></dc:title>
      </cc:Work>
    </rdf:RDF>
  </metadata>
  <defs
     id="defs14" />
  <sodipodi:namedview
     pagecolor="#ffffff"
     bordercolor="#666666"
     borderopacity="1"
     objecttolerance="10"
     gridtolerance="10"
     guidetolerance="10"
     inkscape:pageopacity="0"
     inkscape:pageshadow="2"
     inkscape:window-width="1920"
     inkscape:window-height="976"
     id="namedview12"
     showgrid="false"
     inkscape:zoom="1"
     inkscape:cx="-502.41277"
     inkscape:cy="-15.035387"
     inkscape:window-x="0"
     inkscape:window-y="27"
     inkscape:window-maximized="1"
     inkscape:current-layer="svg10" />
  <path
     style="fill:#1f2348;fill-opacity:0.29411765;fill-rule:evenodd;stroke-width:1"
     inkscape:connector-curvature="0"
     d="m -122.05261,75.069232 c -0.33186,-0.568847 -1.1352,-1.029874 -1.79297,-1.029874 h -10.33354 c -0.65876,0 -1.4606,0.461027 -1.79296,1.029874 l -5.15782,8.850083 c -0.33187,0.568829 -0.33187,1.491401 0,2.060247 l 5.15782,8.850065 c 0.33187,0.568847 1.13521,1.030375 1.79296,1.030375 h 10.33354 c 0.65876,0 1.46061,-0.461027 1.79297,-1.030375 l 5.15783,-8.850065 c 0.33187,-0.568846 0.33187,-1.490918 0,-2.060247 z"
     id="path867-5" />
  <path
     style="fill:#1f2348;fill-opacity:0.29411765;fill-rule:evenodd"
     inkscape:connector-curvature="0"
     d="m -129.88802,75.069232 c -0.33186,-0.568847 -1.1352,-1.029874 -1.79297,-1.029874 h -10.33354 c -0.65876,0 -1.4606,0.461027 -1.79296,1.029874 l -5.15782,8.850083 c -0.33186,0.568829 -0.33186,1.491401 0,2.060247 l 5.15782,8.850065 c 0.33187,0.568847 1.13521,1.030375 1.79296,1.030375 h 10.33354 c 0.65876,0 1.46061,-0.461027 1.79297,-1.030375 l 5.15783,-8.850065 c 0.33187,-0.568846 0.33187,-1.490918 0,-2.060247 z"
     id="path867" />
  <path
     style="fill:#ffc107;fill-rule:evenodd"
     inkscape:connector-curvature="0"
     id="path4"
     d="m -125.32061,5.1801875 c -0.33186,-0.568847 -1.1352,-1.029874 -1.79297,-1.029874 h -10.33354 c -0.65876,0 -1.4606,0.461027 -1.79296,1.029874 l -5.15782,8.8500835 c -0.33186,0.568829 -0.33186,1.491401 0,2.060247 l 5.15782,8.850065 c 0.33187,0.568847 1.13521,1.030375 1.79296,1.030375 h 10.33354 c 0.65876,0 1.46061,-0.461027 1.79297,-1.030375 l 5.15783,-8.850065 c 0.33187,-0.568846 0.33187,-1.490918 0,-2.060247 z" />
  <path
     style="fill:#ffd559;fill-rule:evenodd;stroke-width:0.74774653"
     inkscape:connector-curvature="0"
     id="path2"
     d="m -127.07622,7.6725655 c -0.24814,-0.425354 -0.84883,-0.770085 -1.34067,-0.770085 h -7.72687 c -0.49259,0 -1.09217,0.344731 -1.34069,0.770085 l -3.85675,6.6176185 c -0.24815,0.425341 -0.24815,1.115191 0,1.540542 l 3.85675,6.617607 c 0.24815,0.425352 0.84884,0.770458 1.34069,0.770458 h 7.72687 c 0.49258,0 1.09216,-0.344731 1.34067,-0.770458 l 3.85674,-6.617607 c 0.24816,-0.425351 0.24816,-1.114828 0,-1.540542 z" />
  <path
     style="fill:#ffebad;fill-rule:evenodd;stroke-width:0.49386969"
     inkscape:connector-curvature="0"
     id="path6"
     d="m -128.84313,10.180984 c -0.1639,-0.2809365 -0.56064,-0.5086255 -0.8855,-0.5086255 h -5.10341 c -0.32534,0 -0.72135,0.227689 -0.8855,0.5086255 l -2.54729,4.370788 c -0.1639,0.280927 -0.1639,0.736558 0,1.017493 l 2.54729,4.370779 c 0.1639,0.280936 0.56064,0.50887 0.8855,0.50887 h 5.10341 c 0.32535,0 0.72136,-0.227687 0.8855,-0.50887 l 2.54729,-4.370779 c 0.1639,-0.280936 0.1639,-0.736319 0,-1.017493 z" />
  <path
     style="fill:#ffffff;fill-opacity:1;fill-rule:evenodd;stroke-width:0.23703225"
     inkscape:connector-curvature="0"
     id="path6-3"
     d="m -130.63065,12.613414 c -0.0787,-0.134835 -0.26908,-0.244114 -0.425,-0.244114 h -2.44938 c -0.15614,0 -0.34621,0.109279 -0.42499,0.244114 l -1.22257,2.097755 c -0.0787,0.134832 -0.0787,0.35351 0,0.488345 l 1.22257,2.097751 c 0.0787,0.134836 0.26908,0.244232 0.42499,0.244232 h 2.44938 c 0.15615,0 0.34622,-0.109279 0.425,-0.244232 l 1.22257,-2.097751 c 0.0787,-0.134835 0.0787,-0.353395 0,-0.488345 z" />
  <path
     style="fill:#1f2348;fill-opacity:1;fill-rule:evenodd"
     inkscape:connector-curvature="0"
     d="m -126.0158,75.069232 c -0.33186,-0.568847 -1.13519,-1.029874 -1.79296,-1.029874 h -10.33354 c -0.65876,0 -1.46061,0.461027 -1.79297,1.029874 l -5.15783,8.850083 c -0.33186,0.568829 -0.33186,1.491401 0,2.060247 l 5.15783,8.850065 c 0.33186,0.568847 1.1352,1.030375 1.79297,1.030375 h 10.33354 c 0.65876,0 1.4606,-0.461027 1.79296,-1.030375 l 5.15782,-8.850065 c 0.33187,-0.568846 0.33187,-1.490917 0,-2.060247 z"
     id="path865" />
  <path
     style="fill:#1f2348;fill-opacity:1;fill-rule:evenodd;stroke-width:1"
     inkscape:connector-curvature="0"
     id="path4-6"
     d="m -126.28038,39.548921 c -0.33186,-0.568847 -1.1352,-1.029874 -1.79297,-1.029874 h -10.33355 c -0.65876,0 -1.4606,0.461027 -1.79296,1.029874 l -5.15782,8.850083 c -0.33187,0.568829 -0.33187,1.491401 0,2.060247 l 5.15782,8.850065 c 0.33187,0.568847 1.13521,1.030375 1.79296,1.030375 h 10.33355 c 0.65876,0 1.46061,-0.461027 1.79297,-1.030375 l 5.15783,-8.850065 c 0.33187,-0.568846 0.33187,-1.490918 0,-2.060247 z" />
  <path
     style="fill:#ffffff;fill-opacity:0.39215686;fill-rule:evenodd;stroke-width:0.74774653"
     inkscape:connector-curvature="0"
     id="path2-7"
     d="m -128.036,42.041299 c -0.24814,-0.425354 -0.84883,-0.770085 -1.34067,-0.770085 h -7.72688 c -0.49258,0 -1.09216,0.344731 -1.34068,0.770085 l -3.85675,6.617618 c -0.24815,0.425341 -0.24815,1.115191 0,1.540542 l 3.85675,6.617607 c 0.24815,0.425352 0.84884,0.770458 1.34068,0.770458 h 7.72688 c 0.49258,0 1.09216,-0.344731 1.34067,-0.770458 l 3.85675,-6.617607 c 0.24815,-0.425351 0.24815,-1.114828 0,-1.540542 z" />
  <path
     style="fill:#ffffff;fill-opacity:0.58695649;fill-rule:evenodd;stroke-width:0.49386969"
     inkscape:connector-curvature="0"
     id="path6-5"
     d="m -129.80291,44.549717 c -0.1639,-0.280936 -0.56064,-0.508625 -0.8855,-0.508625 h -5.10341 c -0.32534,0 -0.72135,0.227689 -0.8855,0.508625 l -2.54729,4.370788 c -0.1639,0.280927 -0.1639,0.736558 0,1.017493 l 2.54729,4.370779 c 0.1639,0.280936 0.56065,0.50887 0.8855,0.50887 h 5.10341 c 0.32535,0 0.72136,-0.227687 0.8855,-0.50887 l 2.54729,-4.370779 c 0.1639,-0.280936 0.1639,-0.736319 0,-1.017493 z" />
  <path
     style="fill:#ffffff;fill-opacity:1;fill-rule:evenodd;stroke-width:0.23703225"
     inkscape:connector-curvature="0"
     id="path6-3-3"
     d="m -131.59043,46.982147 c -0.0787,-0.134835 -0.26908,-0.244114 -0.42499,-0.244114 h -2.44938 c -0.15615,0 -0.34621,0.109279 -0.42499,0.244114 l -1.22258,2.097755 c -0.0787,0.134832 -0.0787,0.35351 0,0.488345 l 1.22258,2.097751 c 0.0787,0.134836 0.26907,0.244232 0.42499,0.244232 h 2.44938 c 0.15615,0 0.34621,-0.109279 0.42499,-0.244232 l 1.22257,-2.097751 c 0.0787,-0.134835 0.0787,-0.353395 0,-0.488345 z" />
</svg>
